<svg width="300.23401910455453" height="304.915625" viewBox="0 0 120 121.87118271649894" class="looka-1j8o68f"><defs id="SvgjsDefs1551"></defs><g id="SvgjsG1552" featurekey="xG21Y3-0" transform="matrix(2.0338983050847457,0,0,2.0338983050847457,-4.067796610169491,-4.067796610169491)" fill="#1f8d52"><title xmlns="http://www.w3.org/2000/svg">photo, image, picture, gallery, memories, </title><g xmlns="http://www.w3.org/2000/svg"><path d="M3.1,48H11l4.32,13.09a1.1,1.1,0,0,0,.55.64l.45.19L60.24,47.44h0a1.1,1.1,0,0,0,.7-1.39L58,37H59.9A1.1,1.1,0,0,0,61,35.9V3.1A1.1,1.1,0,0,0,59.9,2H14.1A1.1,1.1,0,0,0,13,3.1V13H3.1A1.1,1.1,0,0,0,2,14.1V46.9A1.1,1.1,0,0,0,3.1,48ZM17,59.61,7.27,30.17,49,16.39l9.71,29.44ZM12,25a2,2,0,0,1,4,0c0,.06,0,.13,0,.19L12.5,26.34h0A2,2,0,0,1,12,25Zm6-.46A4,4,0,1,0,10.54,27L8,27.83V19H34.75ZM28.86,13a4,4,0,0,0-7.72,0H19V8H55V28L50.67,14.9a1.09,1.09,0,0,0-.55-.64l-.11,0V14.1A1.1,1.1,0,0,0,48.9,13Zm-2.14,0H23.28a2,2,0,0,1,3.44,0ZM15,4H59V35H57.3L57,34h0V6H17v7H15ZM4,15H46.87l-6.06,2H6V28.49l-.22.07a1.1,1.1,0,0,0-.64.56L5,29.56,10.38,46H4Z"></path><path d="M9.79,31.45l8.46,25.64,38-12.53L47.78,18.91Zm36.71-10,4.85,14.69L36.19,28.49,28.56,43.65l-3.79-1.91L19,53.1,12.32,32.72ZM35.39,49.33,20.75,54.16l4.9-9.73Zm2.68-.89-7.73-3.89,6.74-13.37,15.16,7.64,1.47,4.47Z"></path><path d="M19.89,40.54a4,4,0,1,0-3.79-2.75,4,4,0,0,0,3.79,2.75Zm-1.78-4.9a2,2,0,0,1,1.16-1,2,2,0,0,1,.63-.1,2,2,0,1,1-1.79,1.1Z"></path></g></g><g id="SvgjsG1553" featurekey="n48U4P-0" transform="matrix(1,0,0,1,140,61)" fill="#111111"><path d=""></path></g></svg>
